<svg xmlns="http://www.w3.org/2000/svg" viewBox="0 0 32 32"><path d="M16 1.786q-.536 0-.75.089-.446.143-.625.286-.286.268-.411.429-.125.232-.125.5l.661 7.321q0 .161.089.268.125.143.286.268t.411.179q.286.071.464.071.161 0 .446-.071.214-.054.393-.179.214-.125.321-.268.125-.125.125-.268l.625-7.321q0-.304-.125-.5-.161-.214-.446-.411-.179-.161-.625-.304-.196-.089-.714-.089zM6 7.75q-.196-.125-.536-.125-.232 0-.554.161-.339.179-.571.375-.232.232-.429.589-.214.375-.321.696-.054.232-.018.679.036.393.143.571.143.232.375.375l6.661 3.089q.214.054.321.036.286-.036.375-.125.232-.143.339-.25.089-.071.286-.393.089-.125.143-.393t.036-.446q0-.161-.054-.375-.036-.125-.196-.25zm21.911 3.321q.232-.125.375-.393.161-.268.161-.554.036-.357-.071-.679-.161-.446-.286-.696-.179-.304-.464-.589-.25-.25-.554-.375-.25-.161-.571-.161t-.5.125l-6 4.214q-.036.036-.179.25-.107.179-.107.375-.018.179.036.446.054.179.196.411.25.357.268.375.071.089.357.25.125.089.375.125.107.018.304-.036zm-23.822 9.34q-.232.125-.375.375-.107.161-.143.554-.036.446.018.696.089.286.321.679.25.393.464.607.143.143.536.357.321.161.554.161.339 0 .536-.125l6-4.214q.179-.179.196-.286.054-.161.054-.375.018-.179-.036-.411-.054-.268-.143-.393-.143-.232-.286-.375-.161-.161-.339-.286-.125-.071-.375-.089-.089-.018-.321.036zm17.161-3.09q-.214-.054-.304-.036-.25.018-.375.089-.25.179-.357.286-.089.089-.268.375-.143.214-.196.393-.054.232-.036.411 0 .196.107.375.143.25.179.286l6 4.214q.179.125.5.125t.571-.161q.339-.161.554-.375.232-.232.464-.589.232-.393.321-.679.054-.393.036-.696 0-.286-.161-.554-.143-.214-.375-.375zM16 20.304q-.179 0-.464.071-.214.054-.375.161-.054.054-.134.107t-.125.089-.063.054q-.089.143-.089.268l-.661 7.321q0 .304.125.536.125.161.411.429.179.143.625.286.214.089.75.089.518 0 .714-.089.429-.143.625-.286.286-.25.446-.429.125-.232.125-.536l-.625-7.321q0-.125-.125-.268-.036-.036-.286-.25-.179-.107-.411-.161-.286-.071-.464-.071z" fill="#ffc220"/></svg>